<svg width="52" height="14" viewBox="0 0 52 14" fill="none" xmlns="http://www.w3.org/2000/svg">
<g clip-path="url(#clip0_38_8000)" filter="url(#filter0_d_38_8000)">
<path d="M1 12V0H50.7143V12H1ZM2.1883 10.7928H49.5164V1.25063H2.1883V10.7921V10.7928Z" fill="black"/>
<path d="M36.7348 5.74027C36.7271 7.94564 34.9504 9.48295 32.8104 9.13643C31.546 8.93128 30.7427 8.24153 30.4997 7.0218C30.1121 5.07484 31.2864 3.18443 33.2383 2.95495C33.7755 2.89183 34.3524 2.91747 34.8749 3.05227C35.8682 3.3087 36.8083 4.25227 36.7348 5.74092V5.74027ZM35.093 5.85534C35.1001 4.98936 34.5404 4.38443 33.7282 4.38049C32.7964 4.37654 32.0596 5.17216 32.0532 6.19002C32.0481 7.05402 32.6154 7.67802 33.4116 7.68262C34.3703 7.68854 35.0841 6.91265 35.0924 5.85534H35.093Z" fill="black"/>
<path d="M13.4932 8.98716H11.9026C12.0209 8.18694 12.136 7.40645 12.2582 6.57862C11.6199 6.57862 11.0257 6.57073 10.4329 6.58914C10.3657 6.59111 10.2608 6.73051 10.2455 6.81927C10.1233 7.52941 10.0191 8.24218 9.90587 8.97862H8.31912C8.62419 6.99155 8.92606 5.02026 9.23113 3.03253H10.8198C10.7034 3.79396 10.5908 4.53566 10.4738 5.303H12.4628C12.5811 4.54815 12.6988 3.79725 12.8191 3.03122H14.4109C14.1046 5.02158 13.8002 6.99747 13.4938 8.98782L13.4932 8.98716Z" fill="black"/>
<path d="M25.0576 5.94409C25.7317 6.97773 26.37 7.95614 27.0492 8.99702C26.4077 8.99702 25.8289 9.0036 25.2501 8.98847C25.1836 8.9865 25.1062 8.87604 25.0583 8.7991C24.6374 8.12776 24.2224 7.45182 23.8041 6.77784C23.7491 6.68973 23.6877 6.60557 23.5828 6.45171C23.4766 7.13554 23.3718 7.74113 23.2905 8.35001C23.2036 9.00294 23.2131 9.00491 22.58 9.00162C22.2922 9.00031 22.0044 8.99636 21.7172 8.99176C21.6987 8.99176 21.6795 8.97467 21.6238 8.94771C21.9244 6.98891 22.2263 5.01828 22.5301 3.03319H24.1136C23.9896 3.83143 23.8687 4.60535 23.7485 5.37927C23.7747 5.4036 23.8009 5.42793 23.8271 5.45291C23.8732 5.37204 23.9064 5.28064 23.9659 5.21291C24.5588 4.53828 25.1504 3.86234 25.7586 3.20217C25.8533 3.0996 26.0253 3.02595 26.1647 3.02069C26.7339 3.00031 27.3044 3.01215 27.9126 3.01215C26.9341 4.01686 25.9952 4.9808 25.0576 5.94343V5.94409Z" fill="black"/>
<path d="M48.1713 3.01279C47.2043 4.00567 46.2667 4.9683 45.3253 5.93422C46.0052 6.97641 46.6428 7.95416 47.3233 8.99767C46.6869 8.99767 46.11 9.00556 45.5332 8.98781C45.459 8.98584 45.3714 8.86419 45.3183 8.77937C44.9083 8.12644 44.5047 7.4689 44.0993 6.81334C44.0372 6.7134 43.9739 6.61411 43.8652 6.44118C43.7788 6.9626 43.7034 7.40381 43.6337 7.84633C43.5844 8.15931 43.5563 8.47559 43.491 8.78463C43.4738 8.86814 43.358 8.98715 43.2832 8.99044C42.8381 9.00951 42.3923 9.0003 41.8896 9.0003C42.1985 6.98759 42.5016 5.01038 42.8061 3.02923H44.3883C44.2649 3.82288 44.144 4.59482 44.0091 5.46079C44.2739 5.16753 44.4849 4.93608 44.6934 4.702C45.1315 4.20885 45.5587 3.70386 46.0122 3.22583C46.1216 3.11077 46.3134 3.02857 46.4708 3.022C47.0297 2.99767 47.59 3.01279 48.1713 3.01279Z" fill="black"/>
<path d="M41.646 3.575C41.4138 3.98596 41.1964 4.36996 40.9783 4.75527C40.748 4.60667 40.5523 4.45083 40.333 4.34957C40.1756 4.27659 39.9748 4.22398 39.8137 4.25949C39.6627 4.29302 39.4747 4.42848 39.4222 4.56656C39.3813 4.67439 39.4843 4.90387 39.5917 4.99461C39.8015 5.17346 40.0567 5.29774 40.2972 5.43713C41.1708 5.94344 41.4938 6.51089 41.3703 7.33017C41.2277 8.279 40.6246 8.9247 39.6928 9.10683C38.7648 9.28831 37.9199 9.12853 37.1978 8.45193C36.9913 8.25861 36.9216 8.10146 37.1237 7.8516C37.3462 7.57544 37.5304 7.26574 37.7447 6.95012C37.9218 7.10267 38.0843 7.25456 38.2589 7.39001C38.5486 7.6162 38.8831 7.75691 39.2412 7.67801C39.4216 7.63856 39.6282 7.49653 39.7235 7.33807C39.8392 7.14541 39.7184 6.93237 39.5297 6.80809C39.2617 6.63187 38.9912 6.45828 38.7123 6.30113C38.0581 5.93423 37.6558 5.42333 37.7709 4.60864C37.8899 3.76239 38.4392 3.13182 39.2374 2.94442C40.1277 2.73533 40.9182 2.9602 41.6454 3.57434L41.646 3.575Z" fill="black"/>
<path d="M16.854 5.37401H18.5041C18.4388 5.8264 18.3781 6.24853 18.3141 6.68974H16.6474C16.5937 7.02048 16.5438 7.33018 16.4875 7.67867H18.2783C18.2118 8.12514 18.151 8.53478 18.0858 8.97336H14.7089C15.014 6.98432 15.3178 5.00777 15.6209 3.03122H18.9921C18.9281 3.4619 18.8776 3.87286 18.7964 4.27659C18.7829 4.34432 18.6345 4.42519 18.5456 4.42848C18.1306 4.44426 17.7149 4.44426 17.2998 4.43243C17.0772 4.42585 16.934 4.45675 16.941 4.74212C16.9455 4.93544 16.8892 5.13007 16.8527 5.37401H16.854Z" fill="black"/>
<path d="M8.43809 3.03061C8.3735 3.46064 8.32233 3.87094 8.24047 4.27466C8.22576 4.34568 8.08442 4.43313 7.99744 4.43773C7.66934 4.4568 7.33933 4.44562 6.98182 4.44562C6.74518 5.96847 6.51174 7.47291 6.27638 8.98721H4.69091C4.92307 7.47488 5.15267 5.98162 5.38739 4.4522H4.09164C4.17095 3.95576 4.24386 3.50009 4.31869 3.03061H8.43809Z" fill="black"/>
<path d="M27.3869 9.00162C27.6971 6.9922 28.0003 5.02354 28.3073 3.03516H29.9094C29.8256 3.61247 29.7482 4.17072 29.6625 4.72831C29.4591 6.05324 29.2442 7.37685 29.0523 8.7031C29.0178 8.93981 28.9423 9.01609 28.714 9.00688C28.281 8.98979 27.8461 9.00162 27.3876 9.00162H27.3869Z" fill="black"/>
</g>
<defs>
<filter id="filter0_d_38_8000" x="0.262062" y="0" width="51.1902" height="13.4759" filterUnits="userSpaceOnUse" color-interpolation-filters="sRGB">
<feFlood flood-opacity="0" result="BackgroundImageFix"/>
<feColorMatrix in="SourceAlpha" type="matrix" values="0 0 0 0 0 0 0 0 0 0 0 0 0 0 0 0 0 0 127 0" result="hardAlpha"/>
<feOffset dy="0.737938"/>
<feGaussianBlur stdDeviation="0.368969"/>
<feComposite in2="hardAlpha" operator="out"/>
<feColorMatrix type="matrix" values="0 0 0 0 0 0 0 0 0 0 0 0 0 0 0 0 0 0 0.1 0"/>
<feBlend mode="normal" in2="BackgroundImageFix" result="effect1_dropShadow_38_8000"/>
<feBlend mode="normal" in="SourceGraphic" in2="effect1_dropShadow_38_8000" result="shape"/>
</filter>
<clipPath id="clip0_38_8000">
<rect width="49.7143" height="12" fill="white" transform="translate(1)"/>
</clipPath>
</defs>
</svg>
